<?xml version="1.0" encoding="UTF-8" standalone="no"?>
<!DOCTYPE svg PUBLIC "-//W3C//DTD SVG 1.1//EN" "http://www.w3.org/Graphics/SVG/1.1/DTD/svg11.dtd">
<svg width="100%" height="100%" viewBox="0 0 472 479" version="1.1" xmlns="http://www.w3.org/2000/svg" xmlns:xlink="http://www.w3.org/1999/xlink" xml:space="preserve" xmlns:serif="http://www.serif.com/" style="fill-rule:evenodd;clip-rule:evenodd;stroke-linejoin:round;stroke-miterlimit:2;">
    <g transform="matrix(1,0,0,1,-511,0)">
        <g id="Artboard2" transform="matrix(0.669429,0,0,0.697591,168.552,102.339)">
            <rect x="511.552" y="-146.703" width="704.414" height="685.305" style="fill:none;"/>
            <g transform="matrix(5.96101e-16,9.34206,-9.73506,5.72036e-16,6296.51,-3207.19)">
                <path d="M346.717,576.741L341.267,590.755C341.24,590.88 341.213,590.967 341.187,591.015C341.161,591.064 341.116,591.133 341.054,591.224C340.955,591.349 340.828,591.459 340.67,591.554C340.513,591.649 340.34,591.696 340.151,591.696L331.302,591.696C331.176,591.696 331.05,591.646 330.922,591.546C330.795,591.446 330.705,591.329 330.654,591.195C330.603,591.061 330.592,590.913 330.619,590.751L330.66,590.563L357.358,524.951C357.43,524.81 357.505,524.676 357.583,524.547C357.66,524.419 357.761,524.302 357.886,524.197C358.134,524.087 358.352,524.024 358.538,524.008L371.272,524.008C371.396,524.008 371.582,524.071 371.832,524.197C371.968,524.26 372.088,524.354 372.19,524.479C372.293,524.605 372.375,524.749 372.438,524.911L399.803,590.67C399.803,590.733 399.809,590.773 399.823,590.791C399.837,590.808 399.844,590.849 399.844,590.911C399.871,591.037 399.86,591.161 399.811,591.283C399.762,591.405 399.675,591.505 399.549,591.581C399.424,591.658 399.298,591.696 399.172,591.696L390.285,591.696C390.071,591.696 389.886,591.642 389.729,591.534C389.572,591.426 389.43,591.282 389.305,591.101C389.269,591.023 389.24,590.965 389.217,590.928C389.194,590.89 389.174,590.832 389.157,590.754L383.573,576.741L346.717,576.741ZM380.303,568.535L364.918,529.93L349.907,568.535L380.303,568.535Z"/>
            </g>
        </g>
    </g>
</svg>
