<?xml version="1.0" encoding="UTF-8" standalone="no"?>
<!DOCTYPE svg PUBLIC "-//W3C//DTD SVG 1.1//EN" "http://www.w3.org/Graphics/SVG/1.1/DTD/svg11.dtd">
<svg width="100%" height="100%" viewBox="0 0 329 479" version="1.1" xmlns="http://www.w3.org/2000/svg" xmlns:xlink="http://www.w3.org/1999/xlink" xml:space="preserve" xmlns:serif="http://www.serif.com/" style="fill-rule:evenodd;clip-rule:evenodd;stroke-linejoin:round;stroke-miterlimit:2;">
    <g transform="matrix(1,0,0,1,-1045.27,0)">
        <g id="Artboard2" transform="matrix(0.466779,0,0,0.697591,806.484,102.339)">
            <rect x="511.552" y="-146.703" width="704.414" height="685.305" style="fill:none;"/>
            <g transform="matrix(-14.4484,-1.18397e-15,1.76942e-15,-9.66784,5901.29,5588.45)">
                <path d="M338.61,573.249L330.801,591.068C330.624,591.478 330.3,591.696 329.853,591.696L326.259,591.696C325.372,591.696 325.781,590.729 325.781,590.729L355.916,524.491C355.976,524.375 356.271,523.86 356.766,523.86L367.917,523.86C368.312,523.86 368.577,524.211 368.581,524.606L369.528,591.065C369.528,591.477 369.263,591.696 368.939,591.696L365.592,591.696C365.132,591.696 364.891,591.336 364.891,590.876L364.83,573.249L338.61,573.249ZM364.816,569.431L364.671,527.67L358.585,527.67L340.283,569.431L364.816,569.431Z"/>
            </g>
        </g>
    </g>
</svg>
