<?xml version="1.0" encoding="UTF-8" standalone="no"?>
<!DOCTYPE svg PUBLIC "-//W3C//DTD SVG 1.1//EN" "http://www.w3.org/Graphics/SVG/1.1/DTD/svg11.dtd">
<svg width="100%" height="100%" viewBox="0 0 588 411" version="1.1" xmlns="http://www.w3.org/2000/svg" xmlns:xlink="http://www.w3.org/1999/xlink" xml:space="preserve" xmlns:serif="http://www.serif.com/" style="fill-rule:evenodd;clip-rule:evenodd;stroke-linejoin:round;stroke-miterlimit:2;">
    <g transform="matrix(1,0,0,1,-1398.14,0)">
        <g id="Artboard2" transform="matrix(0.834124,0,0,0.598616,971.44,87.8189)">
            <rect x="511.552" y="-146.703" width="704.414" height="685.305" style="fill:none;"/>
            <g transform="matrix(6.6918,0,2.29895e-31,9.32449,-1713.69,-5002.11)">
                <path d="M360.66,578.936L356.255,590.412C356.085,590.97 355.44,591.434 354.612,591.425L336.199,591.425C335.49,591.425 335.833,590.644 335.833,590.644C335.833,590.644 362.103,524.854 362.197,524.635C362.335,524.311 362.504,524.225 362.749,524.222L378.292,524.222C378.747,524.201 379.22,524.398 379.639,524.753L435.377,589.743C436.018,590.503 435.615,591.412 434.589,591.425L412.284,591.425C411.706,591.412 411.452,591.313 411.025,590.844L401.207,578.936L360.66,578.936ZM412.243,566.743C412.32,566.748 412.333,566.745 412.283,566.734C412.267,566.73 412.254,566.733 412.243,566.743ZM391.182,566.777L373.603,544.948L365.326,566.777L391.182,566.777ZM355.367,578.943C355.347,578.946 355.335,578.949 355.33,578.952C355.318,578.963 355.331,578.96 355.367,578.943Z"/>
            </g>
        </g>
    </g>
</svg>
