<?xml version="1.0" encoding="UTF-8" standalone="no"?>
<!DOCTYPE svg PUBLIC "-//W3C//DTD SVG 1.1//EN" "http://www.w3.org/Graphics/SVG/1.1/DTD/svg11.dtd">
<svg width="100%" height="100%" viewBox="0 0 392 279" version="1.1" xmlns="http://www.w3.org/2000/svg" xmlns:xlink="http://www.w3.org/1999/xlink" xml:space="preserve" xmlns:serif="http://www.serif.com/" style="fill-rule:evenodd;clip-rule:evenodd;stroke-linejoin:round;stroke-miterlimit:2;">
    <g id="Artboard1" transform="matrix(0.5,0,0,0.404027,416.633,-20.3514)">
        <rect x="-833.266" y="50.371" width="783.756" height="688.159" style="fill:none;"/>
        <clipPath id="_clip1">
            <rect x="-833.266" y="50.371" width="783.756" height="688.159"/>
        </clipPath>
        <g clip-path="url(#_clip1)">
            <g transform="matrix(2.45703,0,0,3.0732,-833.266,48.9729)">
                <path d="M147.058,92.779L147.058,0.758L148.058,0.758L148.058,92.779L147.058,92.779ZM116.469,52.631L102.06,20.21L99.177,26.694L110.705,52.631L93.414,52.631L90.532,46.146L89.076,49.421C88.21,51.341 86.605,52.631 84.767,52.631L55.949,52.631C54.115,52.631 52.513,51.346 51.646,49.433L50.185,46.146L47.303,52.631L30.012,52.631L41.54,26.694L38.658,20.21L24.248,52.631L6.957,52.631L30.012,0.758L47.303,0.758L50.185,7.242L51.646,3.956C52.513,2.042 54.115,0.758 55.949,0.758L84.771,0.758C86.606,0.76 88.209,2.048 89.075,3.965L90.531,7.242L93.414,0.758L110.705,0.758L133.76,52.631L116.469,52.631ZM98.083,24.232L107.627,2.758L94.712,2.758L91.626,9.704L98.083,24.232ZM87.251,48.604L89.437,43.685L82.98,29.156L76.995,42.622C76.267,44.255 74.968,45.558 73.336,46.29C72.392,46.715 71.39,46.93 70.361,46.93C67.504,46.93 64.902,45.247 63.731,42.642L63.755,42.63L63.727,42.636L46.003,2.758L33.089,2.758L53.47,48.613C54.037,49.858 54.986,50.631 55.949,50.631L84.767,50.631C85.734,50.631 86.684,49.854 87.251,48.604ZM65.548,11.58L58.832,26.696L65.555,41.824L65.555,41.821C66.432,43.773 68.351,44.93 70.361,44.93C71.083,44.93 71.816,44.78 72.517,44.466C73.746,43.914 74.659,42.948 75.168,41.808L75.168,41.811L81.886,26.694L75.161,11.563L75.161,11.566C74.285,9.616 72.367,8.461 70.358,8.46C69.635,8.459 68.901,8.606 68.199,8.923C66.97,9.475 66.057,10.439 65.548,11.58ZM4.828,60.436C4.63,60.058 4.27,59.868 3.748,59.868C3.458,59.868 3.221,59.946 3.035,60.101C2.847,60.255 2.701,60.507 2.594,60.853C2.488,61.2 2.413,61.654 2.37,62.215C2.327,62.775 2.306,63.461 2.306,64.272C2.306,65.138 2.335,65.837 2.394,66.37C2.453,66.905 2.542,67.318 2.666,67.612C2.789,67.906 2.944,68.103 3.13,68.204C3.318,68.307 3.533,68.356 3.779,68.356C3.982,68.356 4.171,68.322 4.347,68.253C4.524,68.184 4.676,68.044 4.804,67.836C4.933,67.628 5.034,67.335 5.109,66.956C5.183,66.577 5.221,66.077 5.221,65.458L7.527,65.458C7.527,66.077 7.479,66.665 7.383,67.22C7.287,67.775 7.108,68.261 6.846,68.677C6.584,69.094 6.216,69.419 5.742,69.654C5.266,69.889 4.65,70.007 3.891,70.007C3.027,70.007 2.337,69.868 1.826,69.59C1.313,69.312 0.92,68.912 0.648,68.389C0.375,67.866 0.2,67.241 0.12,66.515C0.04,65.789 0,64.988 0,64.112C0,63.248 0.04,62.449 0.12,61.718C0.2,60.987 0.375,60.359 0.648,59.836C0.92,59.313 1.313,58.905 1.826,58.611C2.337,58.317 3.027,58.17 3.891,58.17C4.713,58.17 5.362,58.304 5.837,58.571C6.312,58.838 6.667,59.177 6.903,59.588C7.137,59.999 7.284,60.442 7.343,60.917C7.402,61.393 7.431,61.838 7.431,62.255L5.125,62.255C5.125,61.421 5.026,60.815 4.828,60.436ZM8.76,63.647C8.76,63.145 8.84,62.727 9,62.391C9.161,62.055 9.376,61.782 9.649,61.574C9.921,61.365 10.242,61.216 10.611,61.125C10.979,61.034 11.371,60.989 11.788,60.989C12.449,60.989 12.983,61.054 13.389,61.182C13.794,61.31 14.11,61.491 14.334,61.726C14.558,61.961 14.71,62.241 14.791,62.566C14.871,62.893 14.911,63.248 14.911,63.632L14.911,68.165C14.911,68.57 14.929,68.886 14.966,69.11C15.003,69.334 15.076,69.574 15.183,69.83L13.069,69.83C12.994,69.692 12.937,69.545 12.901,69.39C12.863,69.235 12.829,69.083 12.796,68.934L12.764,68.934C12.508,69.382 12.211,69.673 11.876,69.806C11.539,69.939 11.104,70.007 10.57,70.007C10.186,70.007 9.86,69.939 9.593,69.806C9.326,69.673 9.113,69.489 8.953,69.254C8.792,69.019 8.675,68.755 8.6,68.461C8.525,68.168 8.488,67.876 8.488,67.588C8.488,67.183 8.531,66.833 8.617,66.539C8.702,66.245 8.833,65.995 9.008,65.786C9.185,65.578 9.409,65.404 9.681,65.266C9.954,65.127 10.282,65.004 10.666,64.897L11.916,64.561C12.247,64.476 12.476,64.358 12.605,64.209C12.732,64.06 12.796,63.84 12.796,63.552C12.796,63.222 12.718,62.962 12.564,62.775C12.41,62.589 12.145,62.495 11.771,62.495C11.429,62.495 11.173,62.597 11.003,62.799C10.832,63.002 10.747,63.274 10.747,63.616L10.747,63.856L8.76,63.856L8.76,63.647ZM12.316,65.802C12.145,65.872 11.991,65.922 11.851,65.955C11.403,66.051 11.083,66.21 10.89,66.435C10.698,66.659 10.602,66.963 10.602,67.348C10.602,67.679 10.666,67.962 10.794,68.196C10.923,68.432 11.136,68.549 11.435,68.549C11.585,68.549 11.739,68.525 11.9,68.477C12.06,68.429 12.207,68.352 12.339,68.245C12.473,68.138 12.583,67.999 12.668,67.828C12.753,67.657 12.796,67.455 12.796,67.22L12.796,65.522C12.647,65.64 12.487,65.733 12.316,65.802ZM18.098,67.3C18.098,67.674 18.197,67.976 18.394,68.204C18.591,68.435 18.877,68.549 19.251,68.549C19.592,68.549 19.865,68.464 20.068,68.293C20.271,68.122 20.373,67.866 20.373,67.523C20.373,67.246 20.292,67.036 20.131,66.892C19.971,66.747 19.785,66.633 19.572,66.547L18.017,65.986C17.409,65.772 16.95,65.472 16.64,65.082C16.331,64.691 16.176,64.192 16.176,63.584C16.176,63.231 16.234,62.897 16.352,62.583C16.469,62.269 16.656,61.993 16.912,61.759C17.168,61.523 17.498,61.337 17.898,61.197C18.298,61.059 18.781,60.989 19.346,60.989C20.351,60.989 21.093,61.203 21.573,61.63C22.053,62.058 22.294,62.66 22.294,63.439L22.294,63.792L20.308,63.792C20.308,63.344 20.236,63.016 20.091,62.808C19.948,62.599 19.694,62.495 19.332,62.495C19.053,62.495 18.81,62.572 18.602,62.727C18.394,62.882 18.29,63.114 18.29,63.424C18.29,63.638 18.357,63.83 18.49,64C18.624,64.171 18.877,64.315 19.251,64.433L20.581,64.881C21.274,65.116 21.765,65.423 22.053,65.802C22.342,66.182 22.486,66.696 22.486,67.348C22.486,67.807 22.406,68.204 22.246,68.541C22.085,68.878 21.865,69.157 21.582,69.382C21.298,69.606 20.962,69.767 20.572,69.862C20.182,69.958 19.752,70.007 19.283,70.007C18.664,70.007 18.148,69.948 17.738,69.83C17.327,69.713 17.001,69.537 16.76,69.302C16.52,69.067 16.352,68.781 16.255,68.445C16.16,68.108 16.112,67.732 16.112,67.315L16.112,67.012L18.098,67.012L18.098,67.3ZM23.576,63.647C23.576,63.145 23.656,62.727 23.816,62.391C23.976,62.055 24.192,61.782 24.464,61.574C24.737,61.365 25.056,61.216 25.425,61.125C25.793,61.034 26.186,60.989 26.602,60.989C27.264,60.989 27.798,61.054 28.204,61.182C28.61,61.31 28.924,61.491 29.149,61.726C29.373,61.961 29.525,62.241 29.605,62.566C29.685,62.893 29.726,63.248 29.726,63.632L29.726,68.165C29.726,68.57 29.744,68.886 29.782,69.11C29.819,69.334 29.891,69.574 29.998,69.83L27.883,69.83C27.809,69.692 27.752,69.545 27.715,69.39C27.677,69.235 27.643,69.083 27.612,68.934L27.58,68.934C27.323,69.382 27.027,69.673 26.691,69.806C26.354,69.939 25.919,70.007 25.385,70.007C25.001,70.007 24.675,69.939 24.408,69.806C24.141,69.673 23.927,69.489 23.767,69.254C23.607,69.019 23.49,68.755 23.416,68.461C23.34,68.168 23.303,67.876 23.303,67.588C23.303,67.183 23.345,66.833 23.431,66.539C23.516,66.245 23.647,65.995 23.824,65.786C24,65.578 24.224,65.404 24.496,65.266C24.768,65.127 25.097,65.004 25.481,64.897L26.73,64.561C27.062,64.476 27.291,64.358 27.419,64.209C27.547,64.06 27.612,63.84 27.612,63.552C27.612,63.222 27.534,62.962 27.379,62.775C27.224,62.589 26.96,62.495 26.586,62.495C26.245,62.495 25.988,62.597 25.818,62.799C25.646,63.002 25.561,63.274 25.561,63.616L25.561,63.856L23.576,63.856L23.576,63.647ZM27.13,65.802C26.96,65.872 26.805,65.922 26.667,65.955C26.218,66.051 25.898,66.21 25.706,66.435C25.513,66.659 25.418,66.963 25.418,67.348C25.418,67.679 25.481,67.962 25.61,68.196C25.738,68.432 25.951,68.549 26.25,68.549C26.399,68.549 26.554,68.525 26.714,68.477C26.875,68.429 27.021,68.352 27.155,68.245C27.289,68.138 27.398,67.999 27.483,67.828C27.569,67.657 27.612,67.455 27.612,67.22L27.612,65.522C27.461,65.64 27.301,65.733 27.13,65.802ZM35.123,63.647C35.123,63.145 35.203,62.727 35.363,62.391C35.523,62.055 35.74,61.782 36.011,61.574C36.285,61.365 36.604,61.216 36.972,61.125C37.341,61.034 37.733,60.989 38.15,60.989C38.812,60.989 39.345,61.054 39.752,61.182C40.158,61.31 40.472,61.491 40.697,61.726C40.921,61.961 41.073,62.241 41.153,62.566C41.233,62.893 41.273,63.248 41.273,63.632L41.273,68.165C41.273,68.57 41.292,68.886 41.329,69.11C41.367,69.334 41.439,69.574 41.545,69.83L39.431,69.83C39.356,69.692 39.3,69.545 39.263,69.39C39.225,69.235 39.191,69.083 39.16,68.934L39.127,68.934C38.871,69.382 38.575,69.673 38.238,69.806C37.902,69.939 37.466,70.007 36.932,70.007C36.548,70.007 36.222,69.939 35.956,69.806C35.689,69.673 35.475,69.489 35.315,69.254C35.155,69.019 35.038,68.755 34.962,68.461C34.888,68.168 34.851,67.876 34.851,67.588C34.851,67.183 34.893,66.833 34.978,66.539C35.064,66.245 35.195,65.995 35.372,65.786C35.547,65.578 35.771,65.404 36.044,65.266C36.316,65.127 36.644,65.004 37.029,64.897L38.278,64.561C38.609,64.476 38.838,64.358 38.966,64.209C39.095,64.06 39.16,63.84 39.16,63.552C39.16,63.222 39.082,62.962 38.926,62.775C38.772,62.589 38.507,62.495 38.134,62.495C37.793,62.495 37.536,62.597 37.365,62.799C37.194,63.002 37.109,63.274 37.109,63.616L37.109,63.856L35.123,63.856L35.123,63.647ZM38.678,65.802C38.507,65.872 38.353,65.922 38.214,65.955C37.765,66.051 37.445,66.21 37.253,66.435C37.06,66.659 36.964,66.963 36.964,67.348C36.964,67.679 37.029,67.962 37.157,68.196C37.285,68.432 37.499,68.549 37.797,68.549C37.947,68.549 38.101,68.525 38.262,68.477C38.422,68.429 38.569,68.352 38.703,68.245C38.835,68.138 38.945,67.999 39.031,67.828C39.117,67.657 39.16,67.455 39.16,67.22L39.16,65.522C39.009,65.64 38.849,65.733 38.678,65.802ZM45.052,58.395L45.052,62.015L45.085,62.015C45.32,61.673 45.584,61.416 45.877,61.245C46.171,61.075 46.527,60.989 46.943,60.989C47.85,60.989 48.518,61.345 48.945,62.055C49.372,62.765 49.585,63.921 49.585,65.522C49.585,67.124 49.372,68.271 48.945,68.966C48.518,69.659 47.85,70.007 46.943,70.007C46.494,70.007 46.118,69.927 45.814,69.767C45.509,69.606 45.234,69.323 44.989,68.917L44.957,68.917L44.957,69.83L42.842,69.83L42.842,58.395L45.052,58.395ZM45.269,67.644C45.414,68.119 45.731,68.356 46.222,68.356C46.703,68.356 47.015,68.119 47.159,67.644C47.303,67.169 47.376,66.462 47.376,65.522C47.376,64.583 47.303,63.875 47.159,63.399C47.015,62.925 46.703,62.686 46.222,62.686C45.731,62.686 45.414,62.925 45.269,63.399C45.125,63.875 45.052,64.583 45.052,65.522C45.052,66.462 45.125,67.169 45.269,67.644ZM53.141,61.214L53.141,69.83L50.931,69.83L50.931,61.214L53.141,61.214ZM53.141,58.267L53.141,60.156L50.931,60.156L50.931,58.267L53.141,58.267ZM56.585,66.547C56.585,66.803 56.603,67.052 56.641,67.292C56.678,67.532 56.74,67.745 56.825,67.933C56.911,68.119 57.022,68.269 57.161,68.381C57.3,68.493 57.471,68.549 57.673,68.549C58.047,68.549 58.32,68.416 58.491,68.148C58.662,67.882 58.779,67.476 58.843,66.932L60.829,66.932C60.787,67.936 60.519,68.698 60.029,69.222C59.537,69.745 58.763,70.007 57.706,70.007C56.905,70.007 56.281,69.873 55.832,69.606C55.383,69.339 55.052,68.987 54.838,68.549C54.625,68.111 54.495,67.62 54.447,67.075C54.398,66.531 54.375,65.986 54.375,65.441C54.375,64.865 54.415,64.311 54.495,63.776C54.575,63.242 54.735,62.768 54.974,62.351C55.215,61.935 55.56,61.603 56.008,61.357C56.457,61.112 57.054,60.989 57.802,60.989C58.443,60.989 58.968,61.093 59.379,61.302C59.791,61.51 60.114,61.804 60.349,62.183C60.584,62.561 60.744,63.02 60.829,63.56C60.914,64.099 60.958,64.7 60.958,65.361L60.958,65.858L56.585,65.858L56.585,66.547ZM58.779,63.672C58.747,63.421 58.691,63.208 58.611,63.031C58.531,62.855 58.418,62.722 58.275,62.631C58.13,62.54 57.946,62.495 57.722,62.495C57.498,62.495 57.313,62.546 57.169,62.646C57.025,62.748 56.911,62.882 56.825,63.048C56.74,63.213 56.678,63.397 56.641,63.601C56.603,63.803 56.585,64.006 56.585,64.209L56.585,64.545L58.843,64.545C58.832,64.214 58.811,63.923 58.779,63.672ZM64.224,61.214L64.224,62.366L64.256,62.366C64.48,61.95 64.752,61.616 65.073,61.365C65.394,61.114 65.783,60.989 66.243,60.989C66.306,60.989 66.374,60.992 66.443,60.997C66.512,61.003 66.579,61.011 66.643,61.021L66.643,63.136C66.525,63.125 66.411,63.117 66.298,63.111C66.186,63.106 66.072,63.103 65.955,63.103C65.762,63.103 65.57,63.13 65.377,63.184C65.185,63.237 65.009,63.325 64.849,63.448C64.689,63.57 64.56,63.73 64.464,63.929C64.369,64.126 64.32,64.369 64.32,64.657L64.32,69.83L62.11,69.83L62.11,61.214L64.224,61.214ZM70.134,58.747L70.134,61.214L71.416,61.214L71.416,62.719L70.134,62.719L70.134,67.38C70.134,67.722 70.185,67.965 70.287,68.108C70.388,68.253 70.599,68.325 70.919,68.325C71.004,68.325 71.089,68.322 71.175,68.316C71.261,68.311 71.341,68.304 71.416,68.293L71.416,69.83C71.169,69.83 70.933,69.839 70.703,69.854C70.473,69.87 70.231,69.879 69.974,69.879C69.547,69.879 69.198,69.849 68.925,69.79C68.653,69.731 68.445,69.614 68.3,69.438C68.157,69.262 68.058,69.029 68.004,68.741C67.951,68.453 67.924,68.09 67.924,67.652L67.924,62.719L66.803,62.719L66.803,61.214L67.924,61.214L67.924,58.747L70.134,58.747ZM72.168,63.647C72.168,63.145 72.249,62.727 72.409,62.391C72.569,62.055 72.785,61.782 73.057,61.574C73.33,61.365 73.65,61.216 74.018,61.125C74.386,61.034 74.779,60.989 75.196,60.989C75.857,60.989 76.391,61.054 76.797,61.182C77.203,61.31 77.518,61.491 77.742,61.726C77.966,61.961 78.119,62.241 78.199,62.566C78.279,62.893 78.319,63.248 78.319,63.632L78.319,68.165C78.319,68.57 78.337,68.886 78.375,69.11C78.412,69.334 78.484,69.574 78.591,69.83L76.477,69.83C76.402,69.692 76.346,69.545 76.308,69.39C76.271,69.235 76.236,69.083 76.205,68.934L76.172,68.934C75.916,69.382 75.62,69.673 75.284,69.806C74.947,69.939 74.512,70.007 73.978,70.007C73.593,70.007 73.267,69.939 73.002,69.806C72.734,69.673 72.521,69.489 72.361,69.254C72.201,69.019 72.083,68.755 72.007,68.461C71.933,68.168 71.896,67.876 71.896,67.588C71.896,67.183 71.939,66.833 72.024,66.539C72.11,66.245 72.24,65.995 72.417,65.786C72.593,65.578 72.817,65.404 73.089,65.266C73.362,65.127 73.69,65.004 74.074,64.897L75.324,64.561C75.654,64.476 75.884,64.358 76.012,64.209C76.14,64.06 76.205,63.84 76.205,63.552C76.205,63.222 76.127,62.962 75.972,62.775C75.817,62.589 75.553,62.495 75.179,62.495C74.837,62.495 74.582,62.597 74.411,62.799C74.24,63.002 74.155,63.274 74.155,63.616L74.155,63.856L72.168,63.856L72.168,63.647ZM75.724,65.802C75.553,65.872 75.398,65.922 75.259,65.955C74.811,66.051 74.49,66.21 74.298,66.435C74.106,66.659 74.01,66.963 74.01,67.348C74.01,67.679 74.074,67.962 74.203,68.196C74.331,68.432 74.544,68.549 74.843,68.549C74.992,68.549 75.147,68.525 75.307,68.477C75.468,68.429 75.615,68.352 75.748,68.245C75.881,68.138 75.991,67.999 76.076,67.828C76.162,67.657 76.205,67.455 76.205,67.22L76.205,65.522C76.055,65.64 75.894,65.733 75.724,65.802ZM83.716,63.647C83.716,63.145 83.796,62.727 83.957,62.391C84.117,62.055 84.333,61.782 84.605,61.574C84.877,61.365 85.198,61.216 85.566,61.125C85.934,61.034 86.327,60.989 86.744,60.989C87.405,60.989 87.939,61.054 88.345,61.182C88.751,61.31 89.066,61.491 89.29,61.726C89.514,61.961 89.667,62.241 89.746,62.566C89.826,62.893 89.867,63.248 89.867,63.632L89.867,68.165C89.867,68.57 89.884,68.886 89.922,69.11C89.96,69.334 90.032,69.574 90.138,69.83L88.025,69.83C87.95,69.692 87.894,69.545 87.856,69.39C87.819,69.235 87.785,69.083 87.752,68.934L87.72,68.934C87.463,69.382 87.168,69.673 86.832,69.806C86.495,69.939 86.06,70.007 85.526,70.007C85.142,70.007 84.816,69.939 84.548,69.806C84.282,69.673 84.068,69.489 83.909,69.254C83.749,69.019 83.63,68.755 83.556,68.461C83.481,68.168 83.444,67.876 83.444,67.588C83.444,67.183 83.486,66.833 83.572,66.539C83.658,66.245 83.789,65.995 83.964,65.786C84.14,65.578 84.365,65.404 84.637,65.266C84.91,65.127 85.238,65.004 85.622,64.897L86.871,64.561C87.202,64.476 87.431,64.358 87.56,64.209C87.688,64.06 87.752,63.84 87.752,63.552C87.752,63.222 87.675,62.962 87.52,62.775C87.365,62.589 87.101,62.495 86.727,62.495C86.385,62.495 86.128,62.597 85.959,62.799C85.788,63.002 85.703,63.274 85.703,63.616L85.703,63.856L83.716,63.856L83.716,63.647ZM87.272,65.802C87.101,65.872 86.946,65.922 86.807,65.955C86.359,66.051 86.039,66.21 85.846,66.435C85.654,66.659 85.558,66.963 85.558,67.348C85.558,67.679 85.622,67.962 85.75,68.196C85.878,68.432 86.091,68.549 86.391,68.549C86.541,68.549 86.695,68.525 86.855,68.477C87.015,68.429 87.162,68.352 87.295,68.245C87.429,68.138 87.539,67.999 87.625,67.828C87.71,67.657 87.752,67.455 87.752,67.22L87.752,65.522C87.603,65.64 87.442,65.733 87.272,65.802ZM93.726,58.395L93.726,69.83L91.516,69.83L91.516,58.395L93.726,58.395ZM101.814,58.747L101.814,61.214L103.096,61.214L103.096,62.719L101.814,62.719L101.814,67.38C101.814,67.722 101.865,67.965 101.967,68.108C102.068,68.253 102.279,68.325 102.6,68.325C102.686,68.325 102.771,68.322 102.855,68.316C102.941,68.311 103.021,68.304 103.096,68.293L103.096,69.83C102.85,69.83 102.612,69.839 102.383,69.854C102.153,69.87 101.911,69.879 101.654,69.879C101.227,69.879 100.878,69.849 100.605,69.79C100.333,69.731 100.125,69.614 99.98,69.438C99.835,69.262 99.737,69.029 99.684,68.741C99.63,68.453 99.604,68.09 99.604,67.652L99.604,62.719L98.483,62.719L98.483,61.214L99.604,61.214L99.604,58.747L101.814,58.747ZM106.155,61.214L106.155,69.83L103.945,69.83L103.945,61.214L106.155,61.214ZM106.155,58.267L106.155,60.156L103.945,60.156L103.945,58.267L106.155,58.267ZM109.599,66.547C109.599,66.803 109.617,67.052 109.654,67.292C109.691,67.532 109.753,67.745 109.839,67.933C109.924,68.119 110.036,68.269 110.175,68.381C110.313,68.493 110.484,68.549 110.688,68.549C111.062,68.549 111.333,68.416 111.504,68.148C111.675,67.882 111.793,67.476 111.857,66.932L113.843,66.932C113.8,67.936 113.533,68.698 113.042,69.222C112.551,69.745 111.776,70.007 110.72,70.007C109.918,70.007 109.294,69.873 108.846,69.606C108.397,69.339 108.066,68.987 107.853,68.549C107.639,68.111 107.508,67.62 107.46,67.075C107.412,66.531 107.389,65.986 107.389,65.441C107.389,64.865 107.428,64.311 107.508,63.776C107.588,63.242 107.748,62.768 107.988,62.351C108.229,61.935 108.573,61.603 109.021,61.357C109.471,61.112 110.068,60.989 110.815,60.989C111.456,60.989 111.982,61.093 112.394,61.302C112.805,61.51 113.127,61.804 113.362,62.183C113.598,62.561 113.757,63.02 113.843,63.56C113.928,64.099 113.971,64.7 113.971,65.361L113.971,65.858L109.599,65.858L109.599,66.547ZM111.793,63.672C111.761,63.421 111.704,63.208 111.625,63.031C111.545,62.855 111.433,62.722 111.288,62.631C111.144,62.54 110.96,62.495 110.735,62.495C110.512,62.495 110.327,62.546 110.183,62.646C110.039,62.748 109.924,62.882 109.839,63.048C109.753,63.213 109.691,63.397 109.654,63.601C109.617,63.803 109.599,64.006 109.599,64.209L109.599,64.545L111.857,64.545C111.846,64.214 111.824,63.923 111.793,63.672ZM117.238,61.214L117.238,62.095L117.271,62.095C117.548,61.699 117.86,61.416 118.207,61.245C118.554,61.075 118.968,60.989 119.448,60.989C119.961,60.989 120.391,61.106 120.737,61.342C121.085,61.577 121.316,61.919 121.435,62.366L121.467,62.366C121.637,61.907 121.912,61.563 122.291,61.333C122.67,61.104 123.121,60.989 123.646,60.989C124.382,60.989 124.924,61.211 125.271,61.654C125.617,62.097 125.791,62.735 125.791,63.567L125.791,69.83L123.58,69.83L123.58,63.809C123.58,63.445 123.514,63.168 123.381,62.976C123.247,62.783 123.025,62.686 122.716,62.686C122.363,62.686 122.083,62.805 121.875,63.039C121.667,63.274 121.563,63.647 121.563,64.16L121.563,69.83L119.353,69.83L119.353,63.809C119.353,63.445 119.285,63.168 119.152,62.976C119.019,62.783 118.797,62.686 118.488,62.686C118.135,62.686 117.854,62.805 117.646,63.039C117.438,63.274 117.334,63.647 117.334,64.16L117.334,69.83L115.124,69.83L115.124,61.214L117.238,61.214ZM129.379,61.214L129.379,62.127L129.41,62.127C129.656,61.721 129.932,61.43 130.235,61.253C130.539,61.077 130.916,60.989 131.365,60.989C132.272,60.989 132.939,61.345 133.367,62.055C133.794,62.765 134.008,63.921 134.008,65.522C134.008,67.124 133.794,68.271 133.367,68.966C132.939,69.659 132.272,70.007 131.365,70.007C130.948,70.007 130.593,69.929 130.3,69.774C130.006,69.62 129.742,69.371 129.507,69.029L129.475,69.029L129.475,72.602L127.265,72.602L127.265,61.214L129.379,61.214ZM129.69,67.644C129.835,68.119 130.151,68.356 130.645,68.356C131.125,68.356 131.437,68.119 131.581,67.644C131.725,67.169 131.797,66.462 131.797,65.522C131.797,64.583 131.725,63.875 131.581,63.399C131.437,62.925 131.125,62.686 130.645,62.686C130.151,62.686 129.835,62.925 129.69,63.399C129.547,63.875 129.475,64.583 129.475,65.522C129.475,66.462 129.547,67.169 129.69,67.644ZM135.161,63.567C135.278,63.002 135.471,62.529 135.737,62.15C136.004,61.771 136.354,61.483 136.786,61.285C137.219,61.088 137.75,60.989 138.38,60.989C139.042,60.978 139.592,61.067 140.029,61.253C140.468,61.44 140.814,61.726 141.071,62.11C141.327,62.495 141.509,62.97 141.615,63.536C141.723,64.103 141.775,64.764 141.775,65.522C141.775,66.259 141.717,66.91 141.6,67.476C141.482,68.042 141.289,68.515 141.023,68.894C140.756,69.272 140.406,69.553 139.974,69.734C139.541,69.916 139.01,70.007 138.38,70.007C137.718,70.017 137.168,69.935 136.73,69.759C136.293,69.582 135.945,69.305 135.689,68.926C135.434,68.546 135.252,68.071 135.145,67.5C135.038,66.929 134.984,66.27 134.984,65.522C134.984,64.785 135.043,64.134 135.161,63.567ZM137.228,66.739C137.248,67.113 137.299,67.434 137.379,67.7C137.459,67.968 137.579,68.176 137.739,68.325C137.899,68.475 138.113,68.549 138.38,68.549C138.829,68.549 139.138,68.314 139.31,67.844C139.48,67.374 139.565,66.601 139.565,65.522C139.565,64.443 139.48,63.67 139.31,63.199C139.138,62.729 138.829,62.495 138.38,62.495C138.113,62.495 137.899,62.569 137.739,62.719C137.579,62.869 137.459,63.077 137.379,63.344C137.299,63.61 137.248,63.931 137.228,64.305C137.205,64.679 137.195,65.085 137.195,65.522C137.195,65.96 137.205,66.365 137.228,66.739ZM156.919,13.152C156.919,13.6 156.947,14.009 157.006,14.381C157.063,14.752 157.17,15.075 157.328,15.348C157.484,15.62 157.699,15.836 157.973,15.992C158.245,16.149 158.588,16.228 159.002,16.228C159.432,16.228 159.778,16.149 160.043,15.992C160.308,15.836 160.519,15.62 160.676,15.348C160.833,15.075 160.94,14.752 160.998,14.381C161.056,14.009 161.085,13.6 161.085,13.152L161.085,0.803L164.656,0.803L164.656,13.152C164.656,14.277 164.499,15.207 164.186,15.943C163.871,16.679 163.449,17.262 162.92,17.691C162.391,18.121 161.787,18.41 161.109,18.56C160.432,18.708 159.729,18.782 159.002,18.782C158.274,18.782 157.571,18.716 156.894,18.584C156.216,18.452 155.612,18.184 155.083,17.778C154.554,17.373 154.133,16.799 153.818,16.055C153.504,15.311 153.348,14.344 153.348,13.152L153.348,0.803L156.919,0.803L156.919,13.152ZM175.345,12.93L175.395,12.93L175.395,0.803L178.668,0.803L178.668,18.51L174.601,18.51L170.236,6.109L170.187,6.109L170.187,18.51L166.913,18.51L166.913,0.803L171.029,0.803L175.345,12.93ZM181.321,0.803L184.893,0.803L184.893,18.51L181.321,18.51L181.321,0.803ZM192.705,13.896L192.779,13.896L195.408,0.803L199.104,0.803L195.036,18.51L190.447,18.51L186.381,0.803L190.199,0.803L192.705,13.896ZM210.313,3.729L203.988,3.729L203.988,7.896L209.94,7.896L209.94,10.821L203.988,10.821L203.988,15.583L210.561,15.583L210.561,18.51L200.417,18.51L200.417,0.803L210.313,0.803L210.313,3.729ZM218.942,0.803C220.431,0.803 221.588,1.179 222.414,1.931C223.241,2.684 223.654,3.828 223.654,5.365C223.654,6.557 223.415,7.527 222.936,8.279C222.455,9.032 221.712,9.516 220.703,9.73L220.703,9.78C221.596,9.912 222.249,10.201 222.662,10.648C223.076,11.095 223.332,11.813 223.432,12.806C223.465,13.137 223.489,13.496 223.506,13.885C223.521,14.273 223.539,14.707 223.556,15.186C223.588,16.129 223.638,16.848 223.704,17.344C223.804,17.84 224.018,18.18 224.349,18.361L224.349,18.51L220.48,18.51C220.298,18.262 220.183,17.977 220.133,17.654C220.083,17.332 220.05,16.997 220.033,16.649L219.935,13.252C219.901,12.558 219.728,12.012 219.414,11.615C219.1,11.219 218.57,11.02 217.826,11.02L215.917,11.02L215.917,18.51L212.346,18.51L212.346,0.803L218.942,0.803ZM217.405,8.54C218.265,8.54 218.926,8.338 219.389,7.933C219.852,7.527 220.083,6.846 220.083,5.887C220.083,4.25 219.256,3.432 217.604,3.432L215.917,3.432L215.917,8.54L217.405,8.54ZM229.012,13.5C229.012,13.914 229.044,14.29 229.11,14.629C229.176,14.968 229.301,15.253 229.482,15.484C229.664,15.716 229.908,15.897 230.214,16.029C230.52,16.162 230.904,16.228 231.367,16.228C231.913,16.228 232.404,16.051 232.843,15.695C233.281,15.34 233.5,14.79 233.5,14.046C233.5,13.648 233.446,13.306 233.339,13.017C233.231,12.728 233.054,12.467 232.806,12.235C232.558,12.004 232.23,11.793 231.826,11.603C231.421,11.413 230.921,11.219 230.326,11.02C229.532,10.756 228.846,10.467 228.268,10.152C227.688,9.838 227.205,9.47 226.816,9.049C226.428,8.627 226.143,8.14 225.961,7.585C225.778,7.031 225.688,6.391 225.688,5.663C225.688,3.911 226.176,2.604 227.151,1.745C228.127,0.886 229.466,0.455 231.169,0.455C231.963,0.455 232.694,0.542 233.363,0.716C234.033,0.89 234.611,1.171 235.1,1.559C235.587,1.947 235.968,2.443 236.24,3.047C236.514,3.65 236.649,4.374 236.649,5.217L236.649,5.713L233.228,5.713C233.228,4.869 233.078,4.221 232.781,3.766C232.483,3.312 231.987,3.084 231.293,3.084C230.896,3.084 230.565,3.143 230.301,3.258C230.036,3.373 229.825,3.526 229.668,3.717C229.511,3.906 229.404,4.126 229.346,4.374C229.288,4.621 229.26,4.878 229.26,5.143C229.26,5.688 229.375,6.146 229.606,6.519C229.838,6.891 230.334,7.234 231.095,7.548L233.848,8.738C234.525,9.036 235.078,9.346 235.509,9.668C235.938,9.991 236.281,10.338 236.538,10.71C236.794,11.082 236.972,11.491 237.071,11.937C237.17,12.384 237.22,12.88 237.22,13.426C237.22,15.294 236.678,16.654 235.596,17.505C234.513,18.357 233.004,18.782 231.069,18.782C229.053,18.782 227.61,18.345 226.742,17.468C225.874,16.592 225.439,15.335 225.439,13.698L225.439,12.979L229.012,12.979L229.012,13.5ZM239.18,0.803L242.75,0.803L242.75,18.51L239.18,18.51L239.18,0.803ZM251.431,0.803C252.67,0.803 253.67,1.005 254.432,1.41C255.191,1.815 255.783,2.394 256.204,3.146C256.626,3.898 256.911,4.804 257.061,5.861C257.209,6.92 257.282,8.103 257.282,9.408C257.282,10.963 257.187,12.314 256.997,13.463C256.808,14.612 256.48,15.559 256.019,16.303C255.556,17.047 254.936,17.601 254.158,17.964C253.381,18.328 252.397,18.51 251.207,18.51L245.578,18.51L245.578,0.803L251.431,0.803ZM250.736,15.881C251.364,15.881 251.868,15.773 252.249,15.559C252.629,15.344 252.931,14.988 253.154,14.492C253.377,13.996 253.525,13.343 253.601,12.533C253.675,11.723 253.712,10.715 253.712,9.508C253.712,8.499 253.679,7.614 253.613,6.854C253.547,6.094 253.41,5.461 253.203,4.957C252.996,4.452 252.691,4.072 252.286,3.815C251.881,3.56 251.34,3.432 250.662,3.432L249.148,3.432L249.148,15.881L250.736,15.881ZM267.5,0.803L272.188,18.51L268.468,18.51L267.649,14.765L262.938,14.765L262.118,18.51L258.398,18.51L263.086,0.803L267.5,0.803ZM267.029,11.838L265.318,3.878L265.269,3.878L263.558,11.838L267.029,11.838ZM279.454,0.803C280.694,0.803 281.694,1.005 282.455,1.41C283.215,1.815 283.807,2.394 284.229,3.146C284.649,3.898 284.935,4.804 285.084,5.861C285.232,6.92 285.307,8.103 285.307,9.408C285.307,10.963 285.211,12.314 285.021,13.463C284.831,14.612 284.505,15.559 284.042,16.303C283.579,17.047 282.959,17.601 282.182,17.964C281.404,18.328 280.421,18.51 279.23,18.51L273.602,18.51L273.602,0.803L279.454,0.803ZM278.76,15.881C279.388,15.881 279.892,15.773 280.272,15.559C280.652,15.344 280.954,14.988 281.178,14.492C281.4,13.996 281.55,13.343 281.624,12.533C281.698,11.723 281.735,10.715 281.735,9.508C281.735,8.499 281.702,7.614 281.637,6.854C281.57,6.094 281.434,5.461 281.228,4.957C281.021,4.452 280.715,4.072 280.31,3.815C279.904,3.56 279.363,3.432 278.686,3.432L277.172,3.432L277.172,15.881L278.76,15.881ZM161.432,26.402L166.119,44.109L162.399,44.109L161.581,40.365L156.869,40.365L156.051,44.109L152.33,44.109L157.018,26.402L161.432,26.402ZM160.961,37.438L159.25,29.478L159.2,29.478L157.489,37.438L160.961,37.438ZM170.707,38.753C170.707,39.199 170.736,39.608 170.794,39.98C170.852,40.353 170.959,40.675 171.117,40.947C171.273,41.221 171.488,41.436 171.762,41.593C172.034,41.75 172.377,41.828 172.791,41.828C173.221,41.828 173.567,41.75 173.832,41.593C174.097,41.436 174.308,41.221 174.465,40.947C174.621,40.675 174.729,40.353 174.787,39.98C174.845,39.608 174.874,39.199 174.874,38.753L174.874,26.402L178.445,26.402L178.445,38.753C178.445,39.877 178.288,40.808 177.974,41.543C177.66,42.279 177.238,42.861 176.709,43.291C176.18,43.722 175.576,44.011 174.898,44.159C174.221,44.309 173.518,44.383 172.791,44.383C172.063,44.383 171.36,44.316 170.683,44.184C170.005,44.052 169.401,43.783 168.872,43.378C168.343,42.973 167.922,42.398 167.607,41.654C167.293,40.91 167.137,39.943 167.137,38.753L167.137,26.402L170.707,26.402L170.707,38.753ZM191.068,29.329L187.199,29.329L187.199,44.109L183.628,44.109L183.628,29.329L179.76,29.329L179.76,26.402L191.068,26.402L191.068,29.329ZM201.409,21.79L198.979,25.361L196.648,25.361L197.987,21.79L201.409,21.79ZM192.42,31.549C192.543,30.416 192.816,29.445 193.238,28.635C193.659,27.824 194.268,27.192 195.061,26.737C195.854,26.283 196.921,26.055 198.26,26.055C199.6,26.055 200.666,26.283 201.459,26.737C202.253,27.192 202.86,27.824 203.282,28.635C203.703,29.445 203.977,30.416 204.101,31.549C204.225,32.682 204.286,33.917 204.286,35.256C204.286,36.612 204.225,37.852 204.101,38.977C203.977,40.101 203.703,41.068 203.282,41.878C202.86,42.687 202.253,43.308 201.459,43.737C200.666,44.168 199.6,44.383 198.26,44.383C196.921,44.383 195.854,44.168 195.061,43.737C194.268,43.308 193.659,42.687 193.238,41.878C192.816,41.068 192.543,40.101 192.42,38.977C192.296,37.852 192.233,36.612 192.233,35.256C192.233,33.917 192.296,32.682 192.42,31.549ZM195.892,38.294C195.949,39.129 196.065,39.807 196.238,40.328C196.412,40.849 196.66,41.228 196.982,41.469C197.305,41.708 197.73,41.828 198.26,41.828C198.789,41.828 199.215,41.708 199.537,41.469C199.859,41.228 200.107,40.849 200.281,40.328C200.455,39.807 200.57,39.129 200.629,38.294C200.686,37.459 200.715,36.446 200.715,35.256C200.715,34.065 200.686,33.058 200.629,32.23C200.57,31.404 200.455,30.727 200.281,30.197C200.107,29.668 199.859,29.283 199.537,29.044C199.215,28.805 198.789,28.684 198.26,28.684C197.73,28.684 197.305,28.805 196.982,29.044C196.66,29.283 196.412,29.668 196.238,30.197C196.065,30.727 195.949,31.404 195.892,32.23C195.834,33.058 195.805,34.065 195.805,35.256C195.805,36.446 195.834,37.459 195.892,38.294ZM214.826,38.529L214.876,38.529L214.876,26.402L218.149,26.402L218.149,44.109L214.082,44.109L209.718,31.71L209.668,31.71L209.668,44.109L206.395,44.109L206.395,26.402L210.512,26.402L214.826,38.529ZM220.443,31.549C220.567,30.416 220.84,29.445 221.262,28.635C221.684,27.824 222.291,27.192 223.084,26.737C223.878,26.283 224.944,26.055 226.283,26.055C227.623,26.055 228.689,26.283 229.482,26.737C230.276,27.192 230.884,27.824 231.306,28.635C231.728,29.445 232,30.416 232.124,31.549C232.248,32.682 232.31,33.917 232.31,35.256C232.31,36.612 232.248,37.852 232.124,38.977C232,40.101 231.728,41.068 231.306,41.878C230.884,42.687 230.276,43.308 229.482,43.737C228.689,44.168 227.623,44.383 226.283,44.383C224.944,44.383 223.878,44.168 223.084,43.737C222.291,43.308 221.684,42.687 221.262,41.878C220.84,41.068 220.567,40.101 220.443,38.977C220.319,37.852 220.257,36.612 220.257,35.256C220.257,33.917 220.319,32.682 220.443,31.549ZM223.915,38.294C223.973,39.129 224.089,39.807 224.263,40.328C224.436,40.849 224.684,41.228 225.006,41.469C225.329,41.708 225.754,41.828 226.283,41.828C226.813,41.828 227.238,41.708 227.561,41.469C227.883,41.228 228.131,40.849 228.305,40.328C228.479,39.807 228.594,39.129 228.652,38.294C228.71,37.459 228.738,36.446 228.738,35.256C228.738,34.065 228.71,33.058 228.652,32.23C228.594,31.404 228.479,30.727 228.305,30.197C228.131,29.668 227.883,29.283 227.561,29.044C227.238,28.805 226.813,28.684 226.283,28.684C225.754,28.684 225.329,28.805 225.006,29.044C224.684,29.283 224.436,29.668 224.263,30.197C224.089,30.727 223.973,31.404 223.915,32.23C223.857,33.058 223.828,34.065 223.828,35.256C223.828,36.446 223.857,37.459 223.915,38.294ZM239.8,26.402L242.329,38.901L242.379,38.901L244.934,26.402L250.216,26.402L250.216,44.109L246.942,44.109L246.942,29.974L246.893,29.974L243.743,44.109L240.965,44.109L237.815,29.974L237.766,29.974L237.766,44.109L234.492,44.109L234.492,26.402L239.8,26.402ZM260.631,26.402L265.318,44.109L261.599,44.109L260.78,40.365L256.068,40.365L255.25,44.109L251.529,44.109L256.217,26.402L260.631,26.402ZM260.16,37.438L258.449,29.478L258.398,29.478L256.687,37.438L260.16,37.438ZM158.952,52.002L161.481,64.502L161.531,64.502L164.086,52.002L169.368,52.002L169.368,69.71L166.095,69.71L166.095,55.574L166.045,55.574L162.896,69.71L160.117,69.71L156.969,55.574L156.919,55.574L156.919,69.71L153.645,69.71L153.645,52.002L158.952,52.002ZM181.817,54.929L175.493,54.929L175.493,59.096L181.445,59.096L181.445,62.021L175.493,62.021L175.493,66.783L182.065,66.783L182.065,69.71L171.922,69.71L171.922,52.002L181.817,52.002L181.817,54.929ZM194.217,54.929L190.349,54.929L190.349,69.71L186.777,69.71L186.777,54.929L182.908,54.929L182.908,52.002L194.217,52.002L194.217,54.929ZM202.352,52.002C203.84,52.002 204.996,52.379 205.823,53.131C206.65,53.883 207.063,55.028 207.063,56.565C207.063,57.756 206.824,58.728 206.345,59.479C205.864,60.232 205.121,60.716 204.112,60.931L204.112,60.98C205.005,61.112 205.658,61.401 206.071,61.849C206.484,62.295 206.741,63.014 206.84,64.006C206.873,64.337 206.898,64.696 206.915,65.085C206.931,65.474 206.947,65.907 206.965,66.387C206.997,67.329 207.047,68.048 207.113,68.544C207.213,69.04 207.427,69.38 207.758,69.561L207.758,69.71L203.889,69.71C203.707,69.462 203.592,69.177 203.542,68.854C203.492,68.532 203.459,68.197 203.442,67.85L203.344,64.452C203.311,63.758 203.137,63.212 202.822,62.815C202.509,62.419 201.979,62.22 201.235,62.22L199.326,62.22L199.326,69.71L195.755,69.71L195.755,52.002L202.352,52.002ZM200.814,59.74C201.674,59.74 202.335,59.538 202.798,59.133C203.261,58.728 203.492,58.046 203.492,57.086C203.492,55.449 202.665,54.631 201.013,54.631L199.326,54.631L199.326,59.74L200.814,59.74ZM209.357,57.148C209.481,56.016 209.754,55.045 210.176,54.234C210.598,53.425 211.205,52.792 211.998,52.337C212.792,51.883 213.858,51.655 215.197,51.655C216.537,51.655 217.604,51.883 218.396,52.337C219.19,52.792 219.798,53.425 220.22,54.234C220.642,55.045 220.914,56.016 221.038,57.148C221.162,58.281 221.225,59.517 221.225,60.856C221.225,62.212 221.162,63.452 221.038,64.576C220.914,65.701 220.642,66.668 220.22,67.478C219.798,68.288 219.19,68.908 218.396,69.338C217.604,69.768 216.537,69.982 215.197,69.982C213.858,69.982 212.792,69.768 211.998,69.338C211.205,68.908 210.598,68.288 210.176,67.478C209.754,66.668 209.481,65.701 209.357,64.576C209.233,63.452 209.172,62.212 209.172,60.856C209.172,59.517 209.233,58.281 209.357,57.148ZM212.829,63.895C212.887,64.729 213.003,65.407 213.177,65.928C213.351,66.448 213.598,66.829 213.921,67.068C214.243,67.309 214.668,67.429 215.197,67.429C215.727,67.429 216.152,67.309 216.475,67.068C216.797,66.829 217.045,66.448 217.219,65.928C217.393,65.407 217.508,64.729 217.566,63.895C217.624,63.06 217.653,62.047 217.653,60.856C217.653,59.666 217.624,58.657 217.566,57.83C217.508,57.004 217.393,56.326 217.219,55.797C217.045,55.268 216.797,54.884 216.475,54.644C216.152,54.404 215.727,54.284 215.197,54.284C214.668,54.284 214.243,54.404 213.921,54.644C213.598,54.884 213.351,55.268 213.177,55.797C213.003,56.326 212.887,57.004 212.829,57.83C212.771,58.657 212.742,59.666 212.742,60.856C212.742,62.047 212.771,63.06 212.829,63.895ZM229.582,52.002C230.491,52.002 231.256,52.155 231.876,52.461C232.496,52.768 232.996,53.168 233.376,53.664C233.756,54.16 234.029,54.727 234.194,55.363C234.359,56 234.442,56.648 234.442,57.31C234.442,58.219 234.307,59.013 234.033,59.69C233.761,60.369 233.38,60.923 232.893,61.353C232.404,61.782 231.814,62.104 231.119,62.319C230.425,62.534 229.656,62.642 228.813,62.642L226.903,62.642L226.903,69.71L223.332,69.71L223.332,52.002L229.582,52.002ZM228.49,60.013C229.201,60.013 229.776,59.798 230.215,59.368C230.652,58.938 230.871,58.269 230.871,57.359C230.871,56.467 230.682,55.789 230.301,55.326C229.921,54.863 229.284,54.631 228.392,54.631L226.903,54.631L226.903,60.013L228.49,60.013ZM236.018,57.148C236.142,56.016 236.414,55.045 236.836,54.234C237.258,53.425 237.865,52.792 238.658,52.337C239.452,51.883 240.519,51.655 241.857,51.655C243.197,51.655 244.264,51.883 245.057,52.337C245.851,52.792 246.458,53.425 246.88,54.234C247.302,55.045 247.574,56.016 247.698,57.148C247.822,58.281 247.884,59.517 247.884,60.856C247.884,62.212 247.822,63.452 247.698,64.576C247.574,65.701 247.302,66.668 246.88,67.478C246.458,68.288 245.851,68.908 245.057,69.338C244.264,69.768 243.197,69.982 241.857,69.982C240.519,69.982 239.452,69.768 238.658,69.338C237.865,68.908 237.258,68.288 236.836,67.478C236.414,66.668 236.142,65.701 236.018,64.576C235.894,63.452 235.831,62.212 235.831,60.856C235.831,59.517 235.894,58.281 236.018,57.148ZM239.489,63.895C239.547,64.729 239.663,65.407 239.837,65.928C240.01,66.448 240.258,66.829 240.58,67.068C240.903,67.309 241.328,67.429 241.857,67.429C242.387,67.429 242.813,67.309 243.135,67.068C243.457,66.829 243.705,66.448 243.879,65.928C244.053,65.407 244.168,64.729 244.227,63.895C244.284,63.06 244.313,62.047 244.313,60.856C244.313,59.666 244.284,58.657 244.227,57.83C244.168,57.004 244.053,56.326 243.879,55.797C243.705,55.268 243.457,54.884 243.135,54.644C242.813,54.404 242.387,54.284 241.857,54.284C241.328,54.284 240.903,54.404 240.58,54.644C240.258,54.884 240.01,55.268 239.837,55.797C239.663,56.326 239.547,57.004 239.489,57.83C239.432,58.657 239.402,59.666 239.402,60.856C239.402,62.047 239.432,63.06 239.489,63.895ZM249.992,52.002L253.563,52.002L253.563,66.783L259.888,66.783L259.888,69.71L249.992,69.71L249.992,52.002ZM261.648,52.002L265.219,52.002L265.219,69.71L261.648,69.71L261.648,52.002ZM278.239,54.929L274.371,54.929L274.371,69.71L270.799,69.71L270.799,54.929L266.931,54.929L266.931,52.002L278.239,52.002L278.239,54.929ZM286.274,52.002L290.962,69.71L287.242,69.71L286.424,65.965L281.711,65.965L280.893,69.71L277.173,69.71L281.86,52.002L286.274,52.002ZM285.804,63.038L284.092,55.078L284.043,55.078L282.331,63.038L285.804,63.038ZM300.634,64.13L300.684,64.13L300.684,52.002L303.957,52.002L303.957,69.71L299.89,69.71L295.525,57.31L295.476,57.31L295.476,69.71L292.202,69.71L292.202,52.002L296.318,52.002L300.634,64.13ZM314.298,52.002L318.985,69.71L315.266,69.71L314.447,65.965L309.735,65.965L308.916,69.71L305.196,69.71L309.884,52.002L314.298,52.002ZM313.827,63.038L312.115,55.078L312.066,55.078L310.355,63.038L313.827,63.038ZM156.03,88.459C156.03,88.819 156.052,89.149 156.099,89.449C156.146,89.749 156.233,90.009 156.36,90.229C156.485,90.449 156.659,90.623 156.88,90.749C157.099,90.876 157.376,90.939 157.71,90.939C158.056,90.939 158.337,90.876 158.55,90.749C158.763,90.623 158.933,90.449 159.06,90.229C159.187,90.009 159.272,89.749 159.319,89.449C159.366,89.149 159.39,88.819 159.39,88.459L159.39,78.499L162.271,78.499L162.271,88.459C162.271,89.366 162.144,90.116 161.89,90.709C161.636,91.303 161.296,91.773 160.87,92.119C160.442,92.466 159.956,92.699 159.409,92.819C158.862,92.939 158.296,92.999 157.71,92.999C157.122,92.999 156.556,92.946 156.009,92.839C155.462,92.733 154.976,92.516 154.55,92.189C154.122,91.863 153.782,91.399 153.53,90.799C153.276,90.199 153.149,89.419 153.149,88.459L153.149,78.499L156.03,78.499L156.03,88.459ZM166.649,82.02L166.649,83.279L166.688,83.279C166.983,82.746 167.362,82.356 167.829,82.109C168.296,81.863 168.829,81.739 169.429,81.739C170.31,81.739 170.985,81.979 171.46,82.459C171.933,82.939 172.169,83.719 172.169,84.799L172.169,92.779L169.409,92.779L169.409,85.359C169.409,84.799 169.315,84.409 169.13,84.189C168.942,83.969 168.642,83.859 168.229,83.859C167.257,83.859 166.769,84.453 166.769,85.639L166.769,92.779L164.009,92.779L164.009,82.02L166.649,82.02ZM176.87,82.02L176.87,92.779L174.108,92.779L174.108,82.02L176.87,82.02ZM176.87,78.339L176.87,80.699L174.108,80.699L174.108,78.339L176.87,78.339ZM184.29,91.639C183.981,92.146 183.64,92.499 183.259,92.699C182.88,92.899 182.409,92.999 181.849,92.999C180.716,92.999 179.882,92.566 179.349,91.699C178.815,90.832 178.55,89.399 178.55,87.399C178.55,85.399 178.815,83.956 179.349,83.069C179.882,82.183 180.716,81.739 181.849,81.739C182.37,81.739 182.812,81.846 183.179,82.059C183.546,82.273 183.876,82.593 184.169,83.02L184.21,83.02L184.21,78.499L186.97,78.499L186.97,92.779L184.329,92.779L184.329,91.639L184.29,91.639ZM181.579,90.049C181.759,90.643 182.149,90.939 182.749,90.939C183.362,90.939 183.759,90.643 183.938,90.049C184.12,89.456 184.21,88.573 184.21,87.399C184.21,86.226 184.12,85.343 183.938,84.749C183.759,84.156 183.362,83.859 182.749,83.859C182.149,83.859 181.759,84.156 181.579,84.749C181.399,85.343 181.31,86.226 181.31,87.399C181.31,88.573 181.399,89.456 181.579,90.049ZM188.79,85.059C188.79,84.433 188.89,83.909 189.089,83.489C189.29,83.069 189.56,82.729 189.899,82.469C190.239,82.209 190.64,82.023 191.099,81.909C191.56,81.796 192.05,81.739 192.569,81.739C193.396,81.739 194.062,81.819 194.569,81.979C195.075,82.139 195.47,82.366 195.749,82.659C196.028,82.953 196.22,83.303 196.319,83.709C196.419,84.116 196.47,84.559 196.47,85.039L196.47,90.699C196.47,91.206 196.493,91.599 196.54,91.879C196.585,92.159 196.675,92.459 196.81,92.779L194.169,92.779C194.075,92.606 194.005,92.423 193.96,92.229C193.913,92.036 193.87,91.846 193.829,91.659L193.79,91.659C193.47,92.219 193.099,92.582 192.679,92.749C192.259,92.916 191.716,92.999 191.05,92.999C190.569,92.999 190.163,92.916 189.829,92.749C189.495,92.582 189.229,92.353 189.028,92.059C188.829,91.766 188.683,91.436 188.589,91.069C188.495,90.703 188.448,90.339 188.448,89.979C188.448,89.473 188.503,89.036 188.608,88.669C188.716,88.303 188.88,87.989 189.099,87.729C189.319,87.469 189.599,87.253 189.938,87.079C190.278,86.906 190.688,86.753 191.169,86.619L192.729,86.199C193.142,86.093 193.429,85.946 193.589,85.759C193.749,85.573 193.829,85.299 193.829,84.939C193.829,84.526 193.731,84.203 193.54,83.969C193.347,83.736 193.017,83.619 192.55,83.619C192.122,83.619 191.802,83.746 191.589,83.999C191.376,84.253 191.269,84.593 191.269,85.02L191.269,85.319L188.79,85.319L188.79,85.059ZM193.229,87.749C193.017,87.836 192.823,87.899 192.649,87.939C192.089,88.059 191.688,88.259 191.448,88.539C191.21,88.819 191.089,89.199 191.089,89.679C191.089,90.093 191.169,90.446 191.329,90.739C191.489,91.033 191.755,91.179 192.13,91.179C192.315,91.179 192.509,91.149 192.71,91.089C192.909,91.029 193.093,90.933 193.259,90.799C193.425,90.666 193.562,90.493 193.669,90.279C193.776,90.066 193.829,89.812 193.829,89.52L193.829,87.399C193.642,87.546 193.442,87.663 193.229,87.749ZM203.909,91.639C203.603,92.146 203.259,92.499 202.88,92.699C202.499,92.899 202.028,92.999 201.47,92.999C200.335,92.999 199.503,92.566 198.97,91.699C198.437,90.832 198.169,89.399 198.169,87.399C198.169,85.399 198.437,83.956 198.97,83.069C199.503,82.183 200.335,81.739 201.47,81.739C201.989,81.739 202.433,81.846 202.8,82.059C203.165,82.273 203.495,82.593 203.79,83.02L203.829,83.02L203.829,78.499L206.589,78.499L206.589,92.779L203.95,92.779L203.95,91.639L203.909,91.639ZM201.2,90.049C201.38,90.643 201.769,90.939 202.37,90.939C202.981,90.939 203.38,90.643 203.56,90.049C203.739,89.456 203.829,88.573 203.829,87.399C203.829,86.226 203.739,85.343 203.56,84.749C203.38,84.156 202.981,83.859 202.37,83.859C201.769,83.859 201.38,84.156 201.2,84.749C201.019,85.343 200.929,86.226 200.929,87.399C200.929,88.573 201.019,89.456 201.2,90.049ZM215.89,78.499L217.729,83.119L219.55,78.499L222.688,78.499L219.368,85.559L222.929,92.779L219.688,92.779L217.63,87.939L215.589,92.779L212.429,92.779L215.989,85.559L212.71,78.499L215.89,78.499ZM223.829,84.959C223.976,84.253 224.216,83.663 224.55,83.189C224.882,82.716 225.319,82.356 225.858,82.109C226.399,81.863 227.062,81.739 227.849,81.739C228.677,81.726 229.362,81.836 229.909,82.069C230.456,82.303 230.89,82.659 231.21,83.139C231.53,83.619 231.757,84.213 231.89,84.919C232.022,85.626 232.089,86.453 232.089,87.399C232.089,88.319 232.017,89.133 231.87,89.839C231.722,90.546 231.483,91.136 231.149,91.609C230.815,92.082 230.38,92.433 229.839,92.659C229.3,92.886 228.636,92.999 227.849,92.999C227.022,93.011 226.335,92.909 225.79,92.689C225.243,92.469 224.81,92.123 224.489,91.649C224.169,91.176 223.942,90.582 223.81,89.869C223.677,89.156 223.608,88.332 223.608,87.399C223.608,86.479 223.683,85.666 223.829,84.959ZM226.409,88.919C226.437,89.386 226.499,89.786 226.599,90.119C226.7,90.453 226.849,90.713 227.05,90.899C227.249,91.086 227.517,91.179 227.849,91.179C228.409,91.179 228.796,90.886 229.009,90.299C229.222,89.713 229.329,88.746 229.329,87.399C229.329,86.053 229.222,85.086 229.009,84.499C228.796,83.913 228.409,83.619 227.849,83.619C227.517,83.619 227.249,83.713 227.05,83.899C226.849,84.086 226.7,84.346 226.599,84.679C226.499,85.013 226.437,85.413 226.409,85.879C226.382,86.346 226.37,86.853 226.37,87.399C226.37,87.946 226.382,88.453 226.409,88.919ZM238.698,85.119C238.665,84.866 238.606,84.636 238.519,84.429C238.433,84.223 238.31,84.056 238.149,83.929C237.989,83.803 237.776,83.739 237.509,83.739C237.175,83.739 236.901,83.816 236.688,83.969C236.476,84.123 236.315,84.349 236.208,84.649C236.103,84.949 236.028,85.329 235.989,85.789C235.948,86.249 235.929,86.793 235.929,87.419C235.929,88.086 235.948,88.656 235.989,89.129C236.028,89.603 236.103,89.993 236.208,90.299C236.315,90.606 236.466,90.829 236.659,90.969C236.853,91.109 237.103,91.179 237.409,91.179C237.876,91.179 238.216,90.979 238.429,90.579C238.642,90.179 238.749,89.539 238.749,88.659L241.39,88.659C241.39,90.073 241.071,91.149 240.438,91.889C239.806,92.629 238.755,92.999 237.288,92.999C236.595,92.999 235.991,92.916 235.479,92.749C234.966,92.582 234.538,92.283 234.198,91.849C233.858,91.416 233.603,90.836 233.429,90.109C233.255,89.383 233.169,88.479 233.169,87.399C233.169,86.293 233.276,85.376 233.489,84.649C233.702,83.923 234.003,83.343 234.39,82.909C234.776,82.476 235.235,82.173 235.769,81.999C236.302,81.826 236.89,81.739 237.528,81.739C238.81,81.739 239.772,82.113 240.419,82.859C241.065,83.606 241.39,84.619 241.39,85.899L238.749,85.899C238.749,85.633 238.731,85.373 238.698,85.119ZM245.589,78.499L245.589,83.119L245.628,83.119C246.161,82.199 247.036,81.739 248.249,81.739C249.128,81.739 249.806,81.979 250.278,82.459C250.751,82.939 250.989,83.719 250.989,84.799L250.989,92.779L248.229,92.779L248.229,85.359C248.229,84.799 248.136,84.409 247.948,84.189C247.763,83.969 247.462,83.859 247.048,83.859C246.075,83.859 245.589,84.453 245.589,85.639L245.589,92.779L242.829,92.779L242.829,78.499L245.589,78.499ZM255.688,82.02L255.688,92.779L252.929,92.779L252.929,82.02L255.688,82.02ZM255.688,78.339L255.688,80.699L252.929,80.699L252.929,78.339L255.688,78.339ZM260.269,82.02L260.269,83.119L260.308,83.119C260.655,82.626 261.045,82.273 261.478,82.059C261.911,81.846 262.429,81.739 263.028,81.739C263.669,81.739 264.204,81.886 264.638,82.179C265.071,82.473 265.362,82.899 265.509,83.459L265.548,83.459C265.761,82.886 266.104,82.456 266.579,82.169C267.052,81.883 267.614,81.739 268.269,81.739C269.188,81.739 269.864,82.016 270.298,82.569C270.731,83.123 270.948,83.919 270.948,84.959L270.948,92.779L268.188,92.779L268.188,85.259C268.188,84.806 268.104,84.459 267.938,84.219C267.772,83.979 267.495,83.859 267.108,83.859C266.669,83.859 266.319,84.006 266.058,84.299C265.798,84.593 265.669,85.059 265.669,85.699L265.669,92.779L262.909,92.779L262.909,85.259C262.909,84.806 262.825,84.459 262.659,84.219C262.491,83.979 262.216,83.859 261.829,83.859C261.388,83.859 261.038,84.006 260.778,84.299C260.519,84.593 260.388,85.059 260.388,85.699L260.388,92.779L257.627,92.779L257.627,82.02L260.269,82.02ZM275.649,82.02L275.649,92.779L272.888,92.779L272.888,82.02L275.649,82.02ZM275.649,78.339L275.649,80.699L272.888,80.699L272.888,78.339L275.649,78.339ZM280.448,78.499L280.448,92.779L277.688,92.779L277.688,78.499L280.448,78.499ZM287.519,85.119C287.485,84.866 287.425,84.636 287.339,84.429C287.251,84.223 287.128,84.056 286.968,83.929C286.808,83.803 286.595,83.739 286.329,83.739C285.995,83.739 285.722,83.816 285.509,83.969C285.294,84.123 285.136,84.349 285.028,84.649C284.921,84.949 284.849,85.329 284.808,85.789C284.769,86.249 284.749,86.793 284.749,87.419C284.749,88.086 284.769,88.656 284.808,89.129C284.849,89.603 284.921,89.993 285.028,90.299C285.136,90.606 285.284,90.829 285.478,90.969C285.671,91.109 285.921,91.179 286.228,91.179C286.694,91.179 287.034,90.979 287.249,90.579C287.462,90.179 287.567,89.539 287.567,88.659L290.208,88.659C290.208,90.073 289.892,91.149 289.259,91.889C288.624,92.629 287.575,92.999 286.108,92.999C285.415,92.999 284.812,92.916 284.298,92.749C283.784,92.582 283.358,92.283 283.019,91.849C282.679,91.416 282.421,90.836 282.249,90.109C282.075,89.383 281.987,88.479 281.987,87.399C281.987,86.293 282.095,85.376 282.308,84.649C282.521,83.923 282.821,83.343 283.208,82.909C283.595,82.476 284.056,82.173 284.589,81.999C285.122,81.826 285.708,81.739 286.349,81.739C287.628,81.739 288.591,82.113 289.237,82.859C289.886,83.606 290.208,84.619 290.208,85.899L287.567,85.899C287.567,85.633 287.552,85.373 287.519,85.119ZM291.509,84.959C291.655,84.253 291.896,83.663 292.228,83.189C292.562,82.716 292.997,82.356 293.538,82.109C294.077,81.863 294.741,81.739 295.528,81.739C296.354,81.726 297.042,81.836 297.589,82.069C298.134,82.303 298.567,82.659 298.888,83.139C299.208,83.619 299.435,84.213 299.567,84.919C299.7,85.626 299.769,86.453 299.769,87.399C299.769,88.319 299.694,89.133 299.548,89.839C299.401,90.546 299.161,91.136 298.827,91.609C298.495,92.082 298.058,92.433 297.519,92.659C296.978,92.886 296.315,92.999 295.528,92.999C294.7,93.011 294.015,92.909 293.468,92.689C292.921,92.469 292.487,92.123 292.169,91.649C291.849,91.176 291.622,90.582 291.487,89.869C291.354,89.156 291.288,88.332 291.288,87.399C291.288,86.479 291.36,85.666 291.509,84.959ZM294.089,88.919C294.114,89.386 294.179,89.786 294.278,90.119C294.378,90.453 294.528,90.713 294.728,90.899C294.929,91.086 295.194,91.179 295.528,91.179C296.089,91.179 296.474,90.886 296.688,90.299C296.901,89.713 297.009,88.746 297.009,87.399C297.009,86.053 296.901,85.086 296.688,84.499C296.474,83.913 296.089,83.619 295.528,83.619C295.194,83.619 294.929,83.713 294.728,83.899C294.528,84.086 294.378,84.346 294.278,84.679C294.179,85.013 294.114,85.413 294.089,85.879C294.062,86.346 294.048,86.853 294.048,87.399C294.048,87.946 294.062,88.453 294.089,88.919ZM14.773,200.119L-0,200.119L-0,199.551L14.435,199.551C11.711,194.833 10.357,188.748 10.357,181.32C10.357,172.228 12.177,165.155 15.827,160.122C19.469,155.088 24.289,152.563 30.242,152.564C35.455,152.563 39.686,154.53 42.915,158.473C44.862,160.81 46.309,164.155 47.273,168.511L47.282,168.555L38.718,171.15L38.709,171.095C38.22,168.288 37.175,166.074 35.596,164.447C33.997,162.831 32.069,162.026 29.812,162.024C26.703,162.026 24.191,163.461 22.23,166.371C20.292,169.272 19.306,173.978 19.306,180.499C19.306,187.423 20.287,192.344 22.2,195.264C23.852,197.756 25.926,199.183 28.436,199.551L31.022,199.551C32.78,199.273 34.332,198.386 35.677,196.876C37.311,195.036 38.506,192.109 39.227,188.138L39.238,188.078L47.425,191.455L47.418,191.496C46.752,194.595 45.86,197.281 44.738,199.551L61.712,199.551L52.62,168.658L52.602,168.595L61.299,168.595L68.633,196.529L75.498,168.971L70.269,168.971L70.269,168.403L84.283,168.403L84.283,154.853L70.981,154.853L70.981,154.285L84.283,154.285L84.283,145.405L84.381,145.405L84.381,154.285L103.666,154.285L104.241,152.352L104.334,152.38L103.768,154.285L112.64,154.285L112.1,152.579L112.642,152.408L113.236,154.285L130.288,154.285L130.288,149L130.259,149.03L129.699,148.488L130.094,148.08L130.288,148.267L130.288,142.755L130.386,142.755L130.386,148.361L130.655,148.621L130.386,148.899L130.386,154.285L135.692,154.285L135.308,153.913L135.703,153.505L136.265,154.048L136.035,154.285L136.342,154.285L136.342,143.202L136.911,143.202L136.911,154.285L144.288,154.285L144.288,148.551L144.856,148.551L144.856,154.285L153.2,154.285L153.2,148.551L153.769,148.551L153.769,154.285L215.116,154.285L215.116,154.853L158.09,154.853C158.898,155.011 159.617,155.207 160.249,155.444C162.807,156.397 164.983,158.12 166.782,160.555C167.469,161.487 168.092,162.495 168.652,163.581L183.31,163.581L183.31,164.148L168.935,164.148C169.569,165.459 170.117,166.876 170.577,168.403L181.443,168.403L181.443,168.971L170.743,168.971C170.791,169.141 170.838,169.312 170.884,169.484C171.784,172.925 172.262,177.146 172.281,182.135L181.444,182.135L181.444,182.704L172.281,182.704C172.276,184.302 172.213,185.825 172.095,187.27L184.084,187.27L184.084,187.838L172.045,187.838C172.022,188.088 171.997,188.336 171.97,188.581L172.169,188.774L171.918,189.033C171.7,190.868 171.384,192.565 170.973,194.121C170.437,196.12 169.786,197.93 169.018,199.551L182.495,199.551L182.434,199.493L182.83,199.084L183.391,199.626L183.228,199.795L183.228,200.119L168.741,200.119C168.037,201.515 167.241,202.764 166.352,203.864C164.837,205.769 162.778,207.249 160.213,208.295C159.543,208.572 158.796,208.799 157.974,208.978L186.28,208.978L186.28,209.547L153.769,209.547L153.769,213.559L153.2,213.559L153.2,209.547L136.911,209.547L136.911,212.619L136.342,212.619L136.342,209.547L130.729,209.547L131.416,211.719L130.875,211.891L130.386,210.348L130.386,212.179L130.288,212.179L130.288,210.039L130.133,209.547L87.591,209.547L87.591,212.924L87.493,212.924L87.493,209.547L87.338,209.547L86.739,211.56L86.645,211.532L87.235,209.547L84.381,209.547L84.381,214.825L84.283,214.825L84.283,209.547L72.639,209.547L71.463,213.665C70.772,215.982 70.101,217.759 69.452,218.969C68.815,220.207 68.068,221.193 67.224,221.961C66.37,222.724 65.337,223.326 64.107,223.75C62.875,224.17 61.493,224.377 59.973,224.377C58.394,224.377 56.859,224.17 55.349,223.75L55.317,223.741L54.655,215.436L54.721,215.452C55.992,215.772 57.132,215.937 58.136,215.937C59.979,215.936 61.326,215.232 62.218,213.796C62.926,212.637 63.517,211.218 63.975,209.547L3.047,209.547L3.047,208.978L27.559,208.978C22.886,208.411 18.97,205.968 15.813,201.665C15.448,201.168 15.101,200.653 14.773,200.119ZM61.879,200.119L44.448,200.119C43.478,201.958 42.347,203.508 41.054,204.769C38.601,207.167 35.591,208.567 32.032,208.978L64.124,208.978C64.179,208.753 64.233,208.524 64.284,208.29L61.879,200.119ZM84.381,154.853L84.381,168.403L87.493,168.403L87.493,157.552L87.591,157.552L87.591,168.403L99.469,168.403L103.497,154.853L84.381,154.853ZM130.288,154.853L113.416,154.853L117.705,168.403L130.288,168.403L130.288,164.148L123.987,164.148L123.987,163.581L130.288,163.581L130.288,154.853ZM136.169,154.853L130.386,154.853L130.386,163.581L136.169,163.581L136.169,154.853ZM168.011,163.581C167.499,162.619 166.937,161.724 166.324,160.892C164.577,158.53 162.497,156.888 160.049,155.976C158.548,155.411 156.449,155.072 153.769,154.976L153.769,163.581L168.011,163.581ZM169.983,168.403C169.511,166.868 168.951,165.451 168.303,164.148L156.021,164.148C157.656,164.618 159.026,165.503 160.099,166.794C160.274,167.009 160.443,167.237 160.605,167.478C160.851,167.771 161.078,168.081 161.285,168.403L169.983,168.403ZM171.713,182.135C171.693,177.182 171.219,173.006 170.334,169.629C170.275,169.407 170.214,169.188 170.152,168.971L161.62,168.971C162.212,170.064 162.582,171.291 162.671,172.595C163.136,174.674 163.377,177.461 163.413,180.987L163.754,180.636L164.315,181.178L163.92,181.586L163.415,181.098C163.417,181.377 163.418,181.661 163.418,181.95L163.418,182.135L164.487,182.135L164.481,182.129L164.876,181.721L165.304,182.135L171.713,182.135ZM171.524,187.27C171.643,185.828 171.707,184.305 171.713,182.704L163.415,182.704C163.402,184.37 163.344,185.891 163.239,187.27L170.368,187.27L170.487,187.147L170.614,187.27L171.524,187.27ZM166.725,184.299L167.12,183.891L167.682,184.434L167.286,184.842L166.725,184.299ZM167.847,185.384L168.243,184.976L168.804,185.519L168.408,185.927L167.847,185.384ZM168.969,186.47L169.365,186.062L169.926,186.604L169.53,187.012L168.969,186.47ZM165.603,183.214L165.998,182.806L166.559,183.349L166.164,183.757L165.603,183.214ZM171.414,188.433C171.435,188.237 171.455,188.038 171.474,187.838L170.904,187.838L170.652,188.097L170.384,187.838L163.192,187.838C163.063,189.312 162.875,190.612 162.629,191.739C162.513,192.702 162.244,193.619 161.845,194.465C161.398,195.689 160.882,196.65 160.28,197.356C159.426,198.346 158.367,199.079 157.127,199.551L168.387,199.551C169.189,197.904 169.867,196.046 170.424,193.975C170.839,192.4 171.157,190.673 171.373,188.795L171.213,188.64L171.414,188.433ZM153.769,208.891C156.337,208.802 158.418,208.423 159.998,207.77C162.489,206.753 164.457,205.329 165.909,203.509C166.716,202.51 167.447,201.38 168.102,200.119L154.454,200.119C154.236,200.14 154.007,200.158 153.769,200.174L153.769,208.891ZM130.549,208.978L136.169,208.978L136.169,200.119L130.386,200.119L130.386,208.464L130.549,208.978ZM96.701,208.978L120.643,208.978L118.02,200.119L99.196,200.119L96.701,208.978ZM121.284,208.978L129.879,208.978L127.125,200.119L118.807,200.119L121.284,208.978ZM84.381,208.978L87.404,208.978L87.493,208.679L87.493,200.119L84.381,200.119L84.381,208.978ZM72.802,208.978L84.283,208.978L84.283,200.119L75.324,200.119L73.466,206.652L72.802,208.978ZM84.283,168.971L84.183,168.971L78.979,187.27L84.283,187.27L84.283,168.971ZM87.493,168.971L84.381,168.971L84.381,187.27L87.493,187.27L87.493,168.971ZM99.3,168.971L87.591,168.971L87.591,187.27L93.859,187.27L99.3,168.971ZM130.288,168.971L117.885,168.971L119.24,173.252C119.295,173.209 119.351,173.166 119.409,173.126L119.463,173.088L122.133,182.194L122.133,182.135L130.288,182.135L130.288,168.971ZM130.386,164.148L130.386,168.403L136.169,168.403L136.169,164.148L130.386,164.148ZM144.288,154.947L137.195,154.947L137.387,155.133L136.991,155.541L136.911,155.463L136.911,163.581L144.288,163.581L144.288,162.599L144.285,162.596L144.288,162.593L144.288,154.947ZM139.796,158.254L140.193,157.846L140.754,158.389L140.357,158.797L139.796,158.254ZM142.041,160.424L142.437,160.016L142.998,160.559L142.602,160.967L142.041,160.424ZM143.163,161.51L143.558,161.102L144.12,161.644L143.724,162.053L143.163,161.51ZM140.918,159.339L141.313,158.931L141.876,159.474L141.48,159.882L140.918,159.339ZM137.552,156.084L137.948,155.676L138.509,156.218L138.113,156.626L137.552,156.084ZM138.674,157.169L139.07,156.761L139.63,157.303L139.235,157.711L138.674,157.169ZM153.2,154.959C152.841,154.951 152.471,154.947 152.092,154.947L144.856,154.947L144.856,162.357L145.241,162.729L144.856,163.127L144.856,163.581L145.504,163.581L145.802,163.272L146.122,163.581L153.2,163.581L153.2,154.959ZM162.85,182.135L162.85,181.95C162.85,181.438 162.846,180.941 162.838,180.459L162.798,180.501L162.238,179.959L162.633,179.549L162.823,179.734C162.777,177.95 162.671,176.382 162.505,175.028C161.801,178.397 159.181,181.079 155.81,181.941C156.033,181.998 156.253,182.063 156.469,182.135L162.85,182.135ZM161.116,178.873L161.511,178.464L162.071,179.007L161.676,179.416L161.116,178.873ZM162.67,187.27C162.776,185.897 162.834,184.375 162.847,182.704L157.808,182.704C158.617,183.125 159.353,183.661 159.995,184.289C160.857,185.132 161.548,186.144 162.016,187.27L162.67,187.27ZM162.514,188.899C162.554,188.557 162.59,188.203 162.623,187.838L162.229,187.838C162.345,188.183 162.441,188.537 162.514,188.899ZM136.911,208.911L152.538,208.911C152.762,208.911 152.983,208.909 153.2,208.906L153.2,200.205C152.656,200.229 152.066,200.241 151.429,200.242L144.856,200.242L144.856,206.023L144.288,206.023L144.288,200.119L136.911,200.119L136.911,208.911ZM130.386,199.551L136.169,199.551L136.169,197.009L130.386,197.009L130.386,199.551ZM130.288,208.156L130.288,200.119L127.744,200.119L130.288,208.156ZM99.355,199.551L117.852,199.551L117.099,197.009L100.072,197.009L99.355,199.551ZM118.648,199.551L126.949,199.551L126.158,197.009L117.937,197.009L118.648,199.551ZM87.591,200.119L87.591,208.35L90.039,200.119L87.591,200.119ZM84.381,199.551L87.493,199.551L87.493,197.009L84.381,197.009L84.381,199.551ZM75.486,199.551L84.283,199.551L84.283,197.009L79.944,197.009L79.944,196.44L84.283,196.44L84.283,187.838L78.817,187.838L75.486,199.551ZM87.493,187.838L84.381,187.838L84.381,196.44L87.493,196.44L87.493,187.838ZM93.69,187.838L87.591,187.838L87.591,196.44L91.132,196.44L93.69,187.838ZM136.169,168.971L130.386,168.971L130.386,182.135L136.169,182.135L136.169,168.971ZM130.288,182.704L122.282,182.704L122.916,184.867L123.677,187.27L130.288,187.27L130.288,182.704ZM144.288,164.148L136.911,164.148L136.911,168.403L144.288,168.403L144.288,164.148ZM160.511,168.403C160.393,168.199 160.273,168.004 160.148,167.817C159.974,167.611 159.791,167.413 159.598,167.224C158.096,165.755 156.045,164.824 153.769,164.752L153.769,168.403L160.511,168.403ZM152.332,164.252C151.353,164.202 150.209,164.176 148.905,164.177L146.013,164.177L145.968,164.224L145.92,164.177L145.342,164.177L145.342,168.403L145.699,168.403C146.277,167.503 147.014,166.711 147.869,166.063L147.651,165.851L148.047,165.442L148.342,165.727C149.51,164.953 150.868,164.434 152.332,164.252ZM146.529,164.765L146.924,164.357L147.485,164.9L147.09,165.309L146.529,164.765ZM160.773,177.751C161.628,176.438 162.123,174.88 162.123,173.208C162.123,173.027 162.118,172.848 162.106,172.67C162.079,172.551 162.051,172.434 162.023,172.32C161.692,171.034 161.288,169.919 160.814,168.971L153.769,168.971L153.769,170.977L154.218,171.411L153.823,171.82L153.769,171.767L153.769,172.092L154.263,172.092L154.263,172.923L154.669,172.923L154.669,173.492L154.263,173.492L154.263,174.313L153.769,174.313L153.769,181.656L153.852,181.659C156.095,181.567 158.114,180.639 159.596,179.185C159.902,178.885 160.185,178.563 160.442,178.222L159.994,177.788L160.389,177.38L160.773,177.751ZM158.872,176.703L159.267,176.294L159.828,176.837L159.433,177.246L158.872,176.703ZM154.382,172.362L154.778,171.953L155.339,172.496L154.943,172.905L154.382,172.362ZM155.504,173.448L155.9,173.038L156.461,173.581L156.065,173.99L155.504,173.448ZM156.626,174.533L157.022,174.124L157.583,174.666L157.187,175.075L156.626,174.533ZM157.749,175.618L158.144,175.209L158.706,175.751L158.311,176.16L157.749,175.618ZM161.397,187.27C160.963,186.303 160.35,185.432 159.598,184.695C158.698,183.814 157.601,183.128 156.376,182.704L153.769,182.704L153.769,187.27L161.397,187.27ZM153.769,199.129C156.045,199.057 158.096,198.126 159.598,196.656C160.306,195.961 160.892,195.147 161.32,194.246C161.574,193.545 161.808,192.746 162.021,191.85L162.067,191.646C162.104,191.327 162.123,191.002 162.123,190.673C162.123,189.678 161.949,188.724 161.628,187.838L153.769,187.838L153.769,189.562L154.263,189.562L154.263,190.388L154.669,190.388L154.669,190.957L154.263,190.957L154.263,191.785L153.769,191.785L153.769,199.129ZM136.911,199.551L144.288,199.551L144.288,190.673L144.288,187.838L136.911,187.838L136.911,196.44L139.264,196.44L139.264,197.009L136.911,197.009L136.911,199.551ZM127.565,199.551L130.288,199.551L130.288,197.009L126.76,197.009L127.565,199.551ZM130.386,196.44L136.169,196.44L136.169,187.838L130.386,187.838L130.386,196.44ZM110.625,196.44L125.982,196.44L125.855,196.034L123.261,187.838L110.36,187.838C110.167,189.009 110.057,190.22 110.057,191.464C110.057,193.181 110.263,194.839 110.625,196.44ZM87.591,197.009L87.591,199.551L90.207,199.551L90.963,197.009L87.591,197.009ZM108.633,168.403L108.377,167.539L108.134,168.403L108.633,168.403ZM136.169,182.704L130.386,182.704L130.386,187.27L136.169,187.27L136.169,182.704ZM130.288,187.838L123.857,187.838L126.58,196.44L130.288,196.44L130.288,187.838ZM144.288,168.971L136.911,168.971L136.911,182.135L144.288,182.135L144.288,173.208L144.288,168.971ZM153.2,168.403L153.2,164.752C150.933,164.825 148.884,165.756 147.384,167.224C147.015,167.586 146.679,167.981 146.381,168.403L150.29,168.403L149.895,168.022L150.291,167.613L150.852,168.155L150.612,168.403L153.2,168.403ZM148.773,166.937L149.169,166.527L149.73,167.07L149.334,167.479L148.773,166.937ZM145.363,168.971L145.342,168.971L145.342,169.01L145.363,168.971ZM153.2,181.657L153.2,168.971L151.694,168.971L151.972,169.24L151.577,169.649L151.016,169.107L151.147,168.971L146.014,168.971C145.747,169.423 145.521,169.902 145.342,170.402L145.342,176.008C145.774,177.215 146.479,178.297 147.384,179.185C148.869,180.64 150.89,181.569 153.13,181.659L153.2,181.657ZM152.139,170.192L152.535,169.783L153.095,170.325L152.699,170.735L152.139,170.192ZM153.2,187.27L153.2,182.704L150.603,182.704C149.381,183.128 148.284,183.814 147.384,184.695C146.632,185.432 146.018,186.303 145.584,187.27L153.2,187.27ZM153.2,199.129L153.2,187.838L145.353,187.838L145.342,187.87L145.342,193.478C145.774,194.686 146.479,195.768 147.384,196.656C148.884,198.125 150.933,199.056 153.2,199.129ZM151.826,199.551C149.01,199.044 146.636,197.281 145.342,194.871L145.342,199.551L151.826,199.551ZM136.911,187.27L144.288,187.27L144.288,182.704L136.911,182.704L136.911,187.27ZM102.819,187.27L114.219,187.27L108.801,168.971L107.974,168.971L102.819,187.27ZM115.217,187.27L123.081,187.27L118.793,173.722C116.555,175.402 114.633,177.513 113.188,179.969L115.217,187.27ZM151.174,181.943C148.645,181.296 146.535,179.622 145.342,177.4L145.342,182.135L150.521,182.135C150.735,182.063 150.953,181.999 151.174,181.943ZM145.342,186.478C146.205,184.872 147.547,183.554 149.181,182.704L145.342,182.704L145.342,186.478ZM125.211,144.147L125.607,143.738L126.167,144.28L125.772,144.689L125.211,144.147ZM126.333,145.232L126.728,144.823L127.289,145.366L126.893,145.775L126.333,145.232ZM127.455,146.317L127.85,145.908L128.411,146.451L128.016,146.86L127.455,146.317ZM128.576,147.402L128.972,146.994L129.533,147.537L129.137,147.945L128.576,147.402ZM130.82,149.573L131.216,149.164L131.777,149.707L131.382,150.115L130.82,149.573ZM131.943,150.658L132.338,150.25L132.899,150.792L132.503,151.2L131.943,150.658ZM133.064,151.743L133.46,151.335L134.021,151.878L133.626,152.286L133.064,151.743ZM134.186,152.828L134.582,152.42L135.143,152.963L134.747,153.371L134.186,152.828ZM172.336,189.725L172.731,189.317L173.292,189.86L172.897,190.268L172.336,189.725ZM173.456,190.81L173.852,190.402L174.413,190.945L174.017,191.353L173.456,190.81ZM174.578,191.895L174.974,191.487L175.535,192.03L175.139,192.438L174.578,191.895ZM175.7,192.981L176.096,192.573L176.657,193.115L176.261,193.524L175.7,192.981ZM176.824,194.066L177.219,193.658L177.78,194.2L177.385,194.608L176.824,194.066ZM177.946,195.152L178.341,194.743L178.902,195.285L178.507,195.693L177.946,195.152ZM179.068,196.237L179.463,195.828L180.024,196.371L179.629,196.78L179.068,196.237ZM180.19,197.322L180.585,196.913L181.146,197.456L180.751,197.865L180.19,197.322ZM181.312,198.408L181.707,197.998L182.269,198.541L181.872,198.95L181.312,198.408ZM183.555,200.578L183.95,200.169L184.511,200.711L184.116,201.12L183.555,200.578Z" style="fill:rgb(100,143,255);"/>
            </g>
        </g>
    </g>
</svg>
